# AST/ASF file generated using VICON BodyLanguage
# -----------------------------------------------
:version 1.10
:name VICON
:units
  mass 1.0
  length 0.45
  angle deg
:documentation
   .ast/.asf automatically generated from VICON data using
   VICON BodyBuilder and BodyLanguage model FoxedUp or BRILLIANT.MOD
:root
   order TX TY TZ RX RY RZ
   axis XYZ
   position 0 0 0  
   orientation 0 0 0 
:bonedata
  begin
     id 1 
     name lhipjoint
     direction 0.646657 -0.683706 0.338203 
     length 2.4948 
     axis 0 0 0  XYZ
  end
  begin
     id 2 
     name lfemur
     direction 0.34202 -0.939693 0  
     length 6.79491  
     axis 0 0 20  XYZ
    dof rx ry rz
    limits (-160.0 20.0)
           (-70.0 70.0)
           (-60.0 70.0)
  end
  begin
     id 3 
     name ltibia
     direction 0.34202 -0.939693 0   
     length 7.56807   
     axis 0 0 20   XYZ
    dof rx
    limits (-10.0 170.0)
  end
  begin
     id 4 
     name lfoot
     direction 0.0679796 -0.186772 0.980048   
     length 2.53018   
     axis -90 7.62852e-016 20   XYZ
    dof rx rz
    limits (-45.0 90.0)
           (-70.0 20.0)
  end
  begin
     id 5 
     name ltoes
     direction 1.53625e-011 -4.21881e-011 1   
     length 1.26912   
     axis -90 7.62852e-016 20   XYZ
    dof rx
    limits (-90.0 20.0)
  end
  begin
     id 6 
     name rhipjoint
     direction -0.618868 -0.704065 0.348274   
     length 2.42265  
     axis 0 0 0  XYZ 
  end
  begin
     id 7 
     name rfemur
     direction -0.34202 -0.939693 0   
     length 6.73814   
     axis 0 0 -20   XYZ
    dof rx ry rz
    limits (-160.0 20.0)
           (-70.0 70.0)
           (-70.0 60.0)
  end
  begin
     id 8 
     name rtibia
     direction -0.34202 -0.939693 0   
     length 7.66799   
     axis 0 0 -20   XYZ
    dof rx
    limits (-10.0 170.0)
 end
 begin
     id 9 
     name rfoot
     direction -0.0727352 -0.199838 0.977125   
     length 2.57224  
     axis -90 -7.62852e-016 -20   XYZ
    dof rx rz
    limits (-45.0 90.0)
           (-20.0 70.0)
  end
  begin
     id 10 
     name rtoes
     direction -1.53501e-011 -4.21858e-011 1   
     length 1.28858   
     axis -90 -7.62852e-016 -20   XYZ
    dof rx
    limits (-90.0 20.0)
  end
  begin
     id 11 
     name lowerback
     direction -0.0172471 0.995767 -0.0902851   
     length 2.20206   
     axis 0 0 0   XYZ
    dof rx ry rz
    limits (-20.0 45.0)
           (-30.0 30.0)
           (-30.0 30.0)
  end
  begin
     id 12 
     name upperback
     direction -0.000110737 0.999714 0.0239043   
     length 2.19523   
     axis 0 0 0   XYZ
    dof rx ry rz
    limits (-20.0 45.0)
           (-30.0 30.0)
           (-30.0 30.0)
  end
  begin
     id 13 
     name thorax
     direction 0.00704869 0.997783 0.0661741   
     length 2.21977   
     axis 0 0 0   XYZ
    dof rx ry rz
    limits (-20.0 45.0)
           (-30.0 30.0)
           (-30.0 30.0)
  end
  begin
     id 14 
     name lowerneck
     direction -0.00407501 0.995527 0.0943846   
     length 1.83142   
     axis 0 0 0   XYZ
    dof rx ry rz
    limits (-20.0 45.0)
           (-30.0 30.0)
           (-30.0 30.0)
  end
  begin
     id 15 
     name upperneck
     direction 0.0640586 0.986486 -0.150807   
     length 1.84616   
     axis 0 0 0   XYZ
    dof rx ry rz
    limits (-20.0 45.0)
           (-30.0 30.0)
           (-30.0 30.0)
  end
  begin
     id 16
     name head
     direction 0.0188017 0.99791 -0.0618239  
     length 1.85932  
     axis 0 0 0   XYZ
    dof rx ry rz
    limits (-20.0 45.0)
           (-30.0 30.0)
           (-30.0 30.0)
  end
  begin
     id 17 
     name lclavicle
     direction 0.976074 0.206905 0.066852  
     length 3.81043  
     axis 0 0 0   XYZ
    dof ry rz
    limits (-20.0 10.0)
           (0.0 20.0)
  end
  begin
     id 18 
     name lhumerus
     direction 1 -4.48971e-011 1.86916e-027   
     length 5.37587   
     axis 180 -30 -90   XYZ
    dof rx ry rz
    limits (-60.0 90.0)
           (-90.0 90.0)
           (-90.0 90.0)
  end
  begin
     id 19
     name lradius
     direction 1 -4.48968e-011 1.69187e-027   
     length 3.35977   
     axis 180 -30 -90   XYZ
    dof rx
    limits (-10.0 170.0)
  end
  begin
     id 20
     name lwrist
     direction 1 -4.48968e-011 5.8978e-027   
     length 1.67988   
     axis -3.27506e-015 90 90   XYZ
    dof ry
    limits (-180.0 0.0)
 end
  begin
     id 21 
     name lhand
     direction 1 -4.49028e-011 1.18071e-026   
     length 0.561859   
     axis -7.52654e-015 90 90   XYZ
    dof rx rz
    limits (-90.0 90.0)
           (-45.0 45.0)
  end
  begin
     id 22 
     name lfingers
     direction 1 -4.48927e-011 2.35758e-026   
     length 0.452985   
     axis -1.50534e-014 90 90   XYZ
    dof rx
    limits (0.0 90.0)
  end
  begin
     id 23
     name lthumb
     direction 0.707107 -6.34898e-011 0.707107   
     length 0.650399   
     axis -90 45 5.69224e-014   XYZ
    dof rx rz
    limits (-45.0 45.0)
           (-45.0 45.0)
  end
  begin
     id 24 
     name rclavicle
     direction -0.988403 0.151789 0.00439714   
     length 3.6942  
     axis 0 0 0   XYZ 
    dof ry rz
    limits (-10.0 20.0)
           (-20.0 0.0)
  end
  begin
     id 25 
     name rhumerus
     direction -1 -4.48978e-011 1.62495e-027  
     length 5.22819   
     axis 180 30 90   XYZ
    dof rx ry rz
    limits (-90.0 60.0)
           (-90.0 90.0)
           (-90.0 90.0)
  end
  begin
     id 26 
     name rradius
     direction -1 -4.48961e-011 3.47796e-027   
     length 3.40764   
     axis 180 30 90   XYZ
    dof rx
    limits (-10.0 170.0)
  end
  begin
     id 27 
     name rwrist
     direction -1 -4.48949e-011 5.89602e-027   
     length 1.70382   
     axis -3.27506e-015 -90 -90   XYZ
    dof ry
    limits (-180.0 0.0)
  end
  begin
     id 28
     name rhand
     direction -1 -4.48977e-011 1.17973e-026   
     length 0.583255   
     axis -7.52654e-015 -90 -90   XYZ
    dof rx rz
    limits (-90.0 90.0)
           (-45.0 45.0)
  end
  begin
     id 29
     name rfingers
     direction -1 -4.49099e-011 2.36408e-026   
     length 0.470235   
     axis -1.50534e-014 -90 -90   XYZ
    dof rx
    limits (0.0 90.0)
  end
  begin
     id 30
     name rthumb
     direction -0.707107 -6.35011e-011 0.707107   
     length 0.675167   
     axis -90 -45 -5.69224e-014   XYZ
    dof rx rz
    limits (-45.0 45.0)
           (-45.0 45.0)
  end
:hierarchy
  begin
    root lhipjoint rhipjoint lowerback
    lhipjoint lfemur
    lfemur ltibia
    ltibia lfoot
    lfoot ltoes
    rhipjoint rfemur
    rfemur rtibia
    rtibia rfoot
    rfoot rtoes
    lowerback upperback
    upperback thorax
    thorax lowerneck lclavicle rclavicle
    lowerneck upperneck
    upperneck head
    lclavicle lhumerus
    lhumerus lradius
    lradius lwrist
    lwrist lhand lthumb
    lhand lfingers
    rclavicle rhumerus
    rhumerus rradius
    rradius rwrist
    rwrist rhand rthumb
    rhand rfingers
  end

#!OML:ASF G:\JayActor3\Patient Classification 1\Patient 1\Session 2\male.ASF
:FULLY-SPECIFIED
:DEGREES
759
root 49.5677 16.6363 -7.56583 17.6426 -87.1164 -17.7639
lowerback -2.77347 -0.654027 -1.68069
upperback 3.58558 -0.857741 0.840794
thorax 5.30373 -0.523609 1.74925
lowerneck -9.67022 -2.54116 -3.18918
upperneck 6.95504 -3.67972 7.19571
head 3.84985 -1.55594 2.49001
rclavicle 1.66793e-015 -5.73991e-015
rhumerus -33.0521 -3.26993 -83.7624
rradius 31.0751
rwrist -7.40583
rhand -22.4355 4.56269
rfingers 7.12502
rthumb 3.98824 -25.3797
lclavicle 1.66793e-015 -5.73991e-015
lhumerus -30.6916 3.06628 85.0508
lradius 29.5335
lwrist 13.5565
lhand -18.691 17.8693
lfingers 7.12502
lthumb 7.60338 47.7126
rfemur -11.8643 0.529507 21.3424
rtibia 35.9726
rfoot -25.6115 -9.60316
rtoes 18.0639
lfemur -5.98866 1.78691 -17.7552
ltibia 24.6391
lfoot -15.4446 6.36868
ltoes -9.7189
760
root 49.5647 16.6359 -7.56555 17.5025 -87.0768 -17.6272
lowerback -2.79146 -0.655285 -1.66432
upperback 3.56501 -0.859639 0.842618
thorax 5.29226 -0.523446 1.74174
lowerneck -9.61572 -2.54203 -3.19517
upperneck 6.92496 -3.67935 7.19741
head 3.83184 -1.55742 2.49206
rclavicle 7.56935e-015 -7.45443e-015
rhumerus -33.0684 -3.30506 -83.7674
rradius 31.074
rwrist -7.4118
rhand -22.4196 4.60188
rfingers 7.12502
rthumb 4.00362 -25.3403
lclavicle 7.56935e-015 -7.45443e-015
lhumerus -30.7332 3.07686 85.0634
lradius 29.543
lwrist 13.5668
lhand -18.6887 17.8533
lfingers 7.12502
lthumb 7.60567 47.6966
rfemur -11.8393 0.527862 21.3507
rtibia 35.9661
rfoot -25.6383 -9.62739
rtoes 18.0657
lfemur -5.98662 1.78469 -17.7475
ltibia 24.6518
lfoot -15.4215 6.33502
ltoes -9.644
761
root 49.5618 16.6355 -7.56521 17.3488 -87.0369 -17.4754
lowerback -2.81018 -0.656675 -1.64771
upperback 3.5464 -0.861733 0.843934
thorax 5.28327 -0.52342 1.73354
lowerneck -9.57498 -2.54135 -3.19974
upperneck 6.90376 -3.67734 7.19864
head 3.81868 -1.55765 2.49371
rclavicle -9.97651e-015 -1.76421e-015
rhumerus -33.0832 -3.3287 -83.7785
rradius 31.0778
rwrist -7.42135
rhand -22.4097 4.63097
rfingers 7.12502
rthumb 4.01318 -25.311
lclavicle -9.97651e-015 -1.76421e-015
lhumerus -30.7714 3.08884 85.0751
lradius 29.5589
lwrist 13.58
lhand -18.6881 17.8411
lfingers 7.12502
lthumb 7.60623 47.6844
rfemur -11.8162 0.524366 21.3575
rtibia 35.9592
rfoot -25.6629 -9.65182
rtoes 18.057
lfemur -5.98759 1.78287 -17.7412
ltibia 24.6652
lfoot -15.3965 6.30178
ltoes -9.57191
762
root 49.5591 16.6353 -7.56481 17.1959 -86.9984 -17.3221
lowerback -2.82908 -0.656993 -1.62902
upperback 3.52877 -0.862426 0.843231
thorax 5.27526 -0.522601 1.72218
lowerneck -9.54705 -2.54113 -3.20038
upperneck 6.89083 -3.6767 7.19915
head 3.81014 -1.55811 2.49428
rclavicle -1.50983e-014 1.11941e-014
rhumerus -33.0997 -3.34174 -83.7985
rradius 31.0901
rwrist -7.4297
rhand -22.4179 4.6361
rfingers 7.12502
rthumb 4.00527 -25.306
lclavicle -1.50983e-014 1.11941e-014
lhumerus -30.806 3.09999 85.0847
lradius 29.578
lwrist 13.5932
lhand -18.6846 17.8318
lfingers 7.12502
lthumb 7.60956 47.6749
rfemur -11.7967 0.517999 21.3626
rtibia 35.9528
rfoot -25.6872 -9.67254
rtoes 18.045
lfemur -5.99031 1.78246 -17.7361
ltibia 24.6787
lfoot -15.3743 6.26703
ltoes -9.49186
763
root 49.5563 16.635 -7.56436 17.0237 -86.9617 -17.147
lowerback -2.84981 -0.657277 -1.61174
upperback 3.51382 -0.863017 0.84236
thorax 5.27114 -0.521864 1.7114
lowerneck -9.53914 -2.54047 -3.20009
upperneck 6.88939 -3.67572 7.1974
head 3.8083 -1.55788 2.49384
rclavicle 4.01918e-015 -3.36692e-015
rhumerus -33.1143 -3.33632 -83.8267
rradius 31.1125
rwrist -7.44059
rhand -22.4414 4.61016
rfingers 7.12502
rthumb 3.9825 -25.3324
lclavicle 4.01918e-015 -3.36692e-015
lhumerus -30.8325 3.11451 85.094
lradius 29.5972
lwrist 13.6069
lhand -18.6843 17.8249
lfingers 7.12502
lthumb 7.60986 47.668
rfemur -11.7808 0.509732 21.365
rtibia 35.9477
rfoot -25.7119 -9.6871
rtoes 18.047
lfemur -5.99456 1.78331 -17.7329
ltibia 24.691
lfoot -15.3564 6.22568
ltoes -9.38308
764
root 49.5537 16.6348 -7.5639 16.8304 -86.9269 -16.9488
lowerback -2.86998 -0.655789 -1.59525
upperback 3.49992 -0.861167 0.840259
thorax 5.26768 -0.519947 1.69998
lowerneck -9.54311 -2.54121 -3.19822
upperneck 6.89267 -3.67693 7.19574
head 3.80995 -1.55837 2.49291
rclavicle -3.70392e-015 -4.5969e-016
rhumerus -33.1301 -3.31995 -83.8609
rradius 31.1425
rwrist -7.44995
rhand -22.4796 4.55621
rfingers 7.12502
rthumb 3.94566 -25.387
lclavicle -3.70392e-015 -4.5969e-016
lhumerus -30.8548 3.12485 85.1037
lradius 29.6181
lwrist 13.6207
lhand -18.6794 17.818
lfingers 7.12502
lthumb 7.6146 47.6609
rfemur -11.7691 0.497611 21.3649
rtibia 35.9447
rfoot -25.7343 -9.7002
rtoes 18.0381
lfemur -6.00012 1.78746 -17.7319
ltibia 24.7005
lfoot -15.34 6.18425
ltoes -9.29129
765
root 49.5511 16.6345 -7.56349 16.6012 -86.895 -16.7143
lowerback -2.88868 -0.653131 -1.58203
upperback 3.4874 -0.857594 0.837355
thorax 5.2648 -0.517316 1.68969
lowerneck -9.55852 -2.54272 -3.19499
upperneck 6.90156 -3.67942 7.19347
head 3.81522 -1.55916 2.49137
rclavicle -2.97245e-015 -2.14936e-015
rhumerus -33.1464 -3.29638 -83.8977
rradius 31.1759
rwrist -7.45858
rhand -22.5228 4.4906
rfingers 7.12502
rthumb 3.90396 -25.4534
lclavicle -2.97245e-015 -2.14936e-015
lhumerus -30.8738 3.13093 85.1144
lradius 29.641
lwrist 13.6369
lhand -18.6755 17.8128
lfingers 7.12502
lthumb 7.6184 47.6555
rfemur -11.7592 0.486986 21.3618
rtibia 35.9442
rfoot -25.7567 -9.7102
rtoes 18.0428
lfemur -6.00393 1.79205 -17.734
ltibia 24.7066
lfoot -15.3253 6.14318
ltoes -9.2045
766
root 49.5484 16.6341 -7.56313 16.3189 -86.8658 -16.4283
lowerback -2.90525 -0.649785 -1.57378
upperback 3.47728 -0.852901 0.834081
thorax 5.26326 -0.514372 1.68191
lowerneck -9.57641 -2.54481 -3.19566
upperneck 6.90816 -3.68236 7.19481
head 3.82037 -1.56008 2.49153
rclavicle -7.34106e-015 3.516e-015
rhumerus -33.1609 -3.26695 -83.9343
rradius 31.2087
rwrist -7.47017
rhand -22.5619 4.42851
rfingers 7.12502
rthumb 3.86621 -25.5162
lclavicle -7.34106e-015 3.516e-015
lhumerus -30.8896 3.13468 85.1268
lradius 29.666
lwrist 13.653
lhand -18.6696 17.8103
lfingers 7.12502
lthumb 7.62407 47.6528
rfemur -11.7489 0.477595 21.3546
rtibia 35.9459
rfoot -25.7797 -9.71642
rtoes 18.059
lfemur -6.00494 1.79825 -17.7397
ltibia 24.7095
lfoot -15.3117 6.10244
ltoes -9.13011
767
root 49.5458 16.6338 -7.5628 16.0082 -86.8379 -16.1157
lowerback -2.9204 -0.646022 -1.56931
upperback 3.47069 -0.847574 0.8315
thorax 5.26466 -0.511363 1.67701
lowerneck -9.60071 -2.54772 -3.19875
upperneck 6.91346 -3.68602 7.19771
head 3.82631 -1.56124 2.49245
rclavicle -2.37299e-015 3.27995e-015
rhumerus -33.1697 -3.23855 -83.9661
rradius 31.2359
rwrist -7.48175
rhand -22.5909 4.38574
rfingers 7.12502
rthumb 3.83813 -25.5594
lclavicle -2.37299e-015 3.27995e-015
lhumerus -30.8984 3.13934 85.1403
lradius 29.6886
lwrist 13.6676
lhand -18.6645 17.8059
lfingers 7.12502
lthumb 7.62895 47.6483
rfemur -11.7378 0.470271 21.3458
rtibia 35.9492
rfoot -25.8025 -9.72577
rtoes 18.0701
lfemur -6.00238 1.80405 -17.7474
ltibia 24.7098
lfoot -15.3 6.06178
ltoes -9.06568
768
root 49.5432 16.6333 -7.56253 15.7044 -86.81 -15.8128
lowerback -2.93334 -0.642219 -1.56676
upperback 3.46791 -0.842261 0.830104
thorax 5.26885 -0.508556 1.67442
lowerneck -9.62638 -2.5513 -3.20211
upperneck 6.91202 -3.69 7.19978
head 3.83042 -1.56267 2.49315
rclavicle 3.21472e-016 -4.58447e-015
rhumerus -33.1721 -3.21434 -83.9919
rradius 31.2565
rwrist -7.49256
rhand -22.6048 4.36277
rfingers 7.12502
rthumb 3.82477 -25.5826
lclavicle 3.21472e-016 -4.58447e-015
lhumerus -30.9001 3.14796 85.1538
lradius 29.7101
lwrist 13.6778
lhand -18.6565 17.8026
lfingers 7.12502
lthumb 7.63671 47.6448
rfemur -11.7235 0.465206 21.3375
rtibia 35.9524
rfoot -25.8279 -9.73482
rtoes 18.0926
lfemur -5.99557 1.8071 -17.7547
ltibia 24.7096
lfoot -15.2929 6.02191
ltoes -9.00367
769
root 49.5405 16.6328 -7.56229 15.4135 -86.7803 -15.5263
lowerback -2.94447 -0.639306 -1.56491
upperback 3.4698 -0.838299 0.83015
thorax 5.277 -0.506594 1.67362
lowerneck -9.65223 -2.55578 -3.20997
upperneck 6.90356 -3.69437 7.20412
head 3.83258 -1.56439 2.49525
rclavicle 7.55537e-015 -6.70898e-015
rhumerus -33.1659 -3.1932 -84.0127
rradius 31.2697
rwrist -7.50414
rhand -22.6046 4.35396
rfingers 7.12502
rthumb 3.8249 -25.5915
lclavicle 7.55537e-015 -6.70898e-015
lhumerus -30.8947 3.16477 85.1665
lradius 29.7324
lwrist 13.6827
lhand -18.6532 17.8023
lfingers 7.12502
lthumb 7.63989 47.6443
rfemur -11.7041 0.459195 21.3309
rtibia 35.9542
rfoot -25.8528 -9.74625
rtoes 18.1104
lfemur -5.98495 1.81053 -17.7603
ltibia 24.7102
lfoot -15.2872 5.98044
ltoes -8.95728
